<?xml version="1.0" encoding="UTF-8"?>
<svg id="Layer_1" data-name="Layer 1"  width="113" height="55" xmlns="http://www.w3.org/2000/svg" viewBox="0 0 958.27 471.2">
  <g>
    <g>
      <path fill="#f9f7eb" d="M593.17,398.45c0,1.34-.46,2.47-1.37,3.4-.91.93-2.02,1.39-3.32,1.39-.62,0-1.18-.1-1.67-.31-.49-.21-.92-.5-1.27-.87-.36-.38-.63-.82-.82-1.34-.19-.52-.28-1.09-.28-1.71,0-1.62.51-2.92,1.53-3.88.84-.79,1.75-1.18,2.73-1.18,1.3,0,2.37.42,3.21,1.26s1.26,1.92,1.26,3.24ZM591.19,398.91c0-.68-.29-1.25-.86-1.71-.55-.45-1.2-.67-1.93-.67-.52,0-.97.24-1.37.72-.39.45-.59.95-.59,1.5,0,1.27.8,1.9,2.41,1.9.55,0,1.06-.15,1.53-.46.54-.34.8-.77.8-1.29Z"/>
      <path fill="#f9f7eb" d="M602.81,434.37h-1.02c-1.93,0-3.43-.62-4.5-1.87-1.27,3.37-3.21,6.2-5.84,8.49-2.23,1.91-5.21,3.65-8.94,5.22-.52.23-1.04.35-1.55.35-.7,0-1.29-.22-1.78-.66-.49-.44-.74-1-.74-1.7,0-1.27.75-2.25,2.25-2.94,3.19-1.5,5.61-2.88,7.25-4.15,2.55-1.96,4.12-4.19,4.71-6.67.07-.23.11-.58.11-1.04,0-1.37-.29-2.9-.86-4.58-.11-.29-.16-.6-.16-.94,0-.75.25-1.38.75-1.9.5-.52,1.12-.8,1.87-.86h.19c1,0,1.83.65,2.49,1.95.18.36.39.81.63,1.35.24.54.53,1.17.87,1.89.89,1.21,2.3,1.82,4.23,1.82h.03v6.24Z"/>
      <path fill="#f9f7eb" d="M617.48,434.37h-16.54v-6.24h16.54v6.24Z"/>
      <path fill="#f9f7eb" d="M632.15,434.37h-16.54v-6.24h16.54v6.24Z"/>
      <path fill="#f9f7eb" d="M646.82,434.37h-16.54v-6.24h16.54v6.24Z"/>
      <path fill="#f9f7eb" d="M661.49,434.37h-16.54v-6.24h16.54v6.24Z"/>
      <path fill="#f9f7eb" d="M676.16,434.37h-16.54v-6.24h16.54v6.24Z"/>
      <path fill="#f9f7eb" d="M678.21,388.33c-.14.04-.28.05-.4.05-.79,0-1.18-.42-1.18-1.26,0-.62.37-1.06,1.1-1.31l9.93-3.16c.16-.05.35-.08.56-.08.91,0,1.37.43,1.37,1.29,0,.59-.37,1.01-1.1,1.26l-10.28,3.21Z"/>
      <path fill="#f9f7eb" d="M687,424.68c0,3-.84,5.36-2.52,7.09-1.68,1.73-4.01,2.6-6.99,2.6h-3.21v-6.24h3.56c2.66,0,3.99-.93,3.99-2.78,0-.52-.13-1.28-.4-2.3-.12-.52-.22-.97-.28-1.37s-.09-.72-.09-.99c0-.75.23-1.38.7-1.9.46-.52,1.07-.78,1.82-.78,2.28,0,3.43,2.22,3.43,6.67ZM676.48,411.69c0-.43.08-.83.24-1.21.16-.37.38-.7.66-.98s.6-.5.98-.66c.38-.16.78-.24,1.2-.24s.83.08,1.21.24c.38.16.7.38.96.66s.48.6.64.98c.16.38.24.78.24,1.21s-.08.83-.24,1.21c-.16.37-.38.7-.64.96s-.59.48-.96.64c-.38.16-.78.24-1.21.24s-.83-.08-1.2-.24c-.38-.16-.7-.38-.98-.64s-.5-.59-.66-.96c-.16-.38-.24-.78-.24-1.21ZM680.23,405.19c0-.43.08-.83.24-1.21.16-.38.38-.71.64-.99s.59-.51.96-.67c.38-.16.78-.24,1.21-.24s.83.08,1.2.24c.38.16.7.38.98.67.28.29.5.62.66.99.16.38.24.78.24,1.21s-.08.83-.24,1.2c-.16.38-.38.7-.66.96-.28.27-.6.48-.98.64-.37.16-.78.24-1.2.24-.84,0-1.56-.29-2.17-.88-.59-.61-.88-1.33-.88-2.17ZM683.95,411.69c0-.43.08-.83.24-1.21.16-.37.38-.7.66-.98.28-.28.6-.5.98-.66.38-.16.78-.24,1.21-.24s.83.08,1.2.24c.38.16.7.38.96.66s.48.6.64.98c.16.38.24.78.24,1.21s-.08.83-.24,1.21c-.16.37-.38.7-.64.96s-.59.48-.96.64c-.38.16-.78.24-1.2.24s-.83-.08-1.21-.24c-.38-.16-.7-.38-.98-.64-.28-.27-.5-.59-.66-.96-.16-.38-.24-.78-.24-1.21Z"/>
      <path fill="#f9f7eb" d="M694.55,401.07c-.32.09-.58.13-.78.13-.8,0-1.2-.35-1.2-1.04,0-.64.44-1.15,1.31-1.53l1.53-.64c-.96-.88-1.45-1.91-1.45-3.11,0-1.37.49-2.52,1.47-3.43s2.16-1.37,3.53-1.37c.73,0,1.44.16,2.12.48.84.41,1.26.93,1.26,1.55,0,.66-.31.99-.94.99-.29,0-.72-.05-1.31-.16-.52-.12-.95-.19-1.29-.19-1.36,0-2.03.59-2.03,1.77,0,1.3,1.02,1.95,3.05,1.95.16,0,1.23-.29,3.21-.86.32-.09.6-.13.83-.13.93,0,1.39.36,1.39,1.07s-.55,1.25-1.66,1.61l-9.05,2.89ZM703.84,429.36c2.19-.61,3.74-1.52,4.63-2.73,1.02-1.39,1.53-3.59,1.53-6.58,0-.46-.01-1-.04-1.61-.03-.61-.08-1.29-.15-2.03l-.91-10.74c-.09-1.04.08-1.94.51-2.7.5-.93,1.24-1.39,2.22-1.39,1.78,0,2.74,1.21,2.86,3.64l.7,11.97c.05.95.08,1.67.08,2.17,0,10.87-5.34,16.3-16.01,16.3-3.14,0-4.71-.94-4.71-2.81,0-1.29,1.29-2.19,3.86-2.7.14-.04.66-.12,1.57-.24s2.19-.3,3.87-.54ZM700.1,422.45c0-5.37-1.37-10.4-4.1-15.1-.38-.64-.56-1.32-.56-2.03,0-.8.24-1.49.72-2.05.48-.56,1.12-.84,1.93-.84,2.32,0,4.15,2.62,5.49,7.84.95,3.75,1.42,7.27,1.42,10.57,0,1.95-.16,3.8-.48,5.57-.27,1.5-1.13,2.25-2.6,2.25-1.38,0-2.06-.69-2.06-2.06,0-.23,0-.52.03-.86.02-.34.04-.74.08-1.21.04-.46.07-.87.09-1.22.03-.35.04-.64.04-.87Z"/>
      <path fill="#f9f7eb" d="M725.31,432.39c0,1.95-.77,2.92-2.3,2.92-1.45,0-2.2-.91-2.28-2.73l-1.04-26.61c0-.64.07-1.24.2-1.79.13-.55.33-1.03.58-1.42.25-.39.55-.7.91-.92.36-.22.77-.33,1.23-.33,1.8,0,2.7,1.36,2.7,4.07v26.82Z"/>
      <path fill="#f9f7eb" d="M762.85,434.37h-1.04c-4.94,0-7.59-2.29-7.95-6.88-1,.54-2.2.8-3.61.8-1.7,0-3.22-.36-4.58-1.07-1.7-.89-2.54-2.1-2.54-3.61,0-2.59,1.23-4.73,3.69-6.42.55-.36,1.31-.85,2.28-1.47s2.15-1.39,3.56-2.3c.32-.27.66-.63,1.03-1.08.37-.46.75-.99,1.17-1.62.52-.79,1.13-1.18,1.85-1.18,1.46,0,2.2,1.04,2.2,3.13,0,.43-.03.96-.08,1.61-.05.64-.12,1.4-.21,2.28-.09.86-.16,1.61-.2,2.25-.04.64-.07,1.18-.07,1.61,0,2.21.14,3.83.43,4.85.54,1.93,1.59,2.89,3.16,2.89h.94v6.24ZM753.66,418.09c-.46.41-1.62,1.13-3.48,2.17-1.2.66-1.79,1.31-1.79,1.95,0,.61.71.91,2.14.91s2.37-.17,3-.51c-.02-.2-.03-.39-.03-.59v-.62c0-.95.05-2.05.16-3.32Z"/>
      <path fill="#f9f7eb" d="M775.8,380c.12.57.19,1.16.19,1.77,0,1.38-.29,2.53-.86,3.48-.68,1.12-1.67,1.69-2.97,1.69s-2.09-.61-2.52-1.82c-.68,1.87-1.92,2.81-3.72,2.81s-2.57-1.12-2.57-3.37c0-.95.21-1.87.62-2.78.23-.48.54-.72.94-.72.55,0,.79.41.72,1.23-.18,1.57.18,2.36,1.07,2.36,1.3,0,2.12-1.15,2.44-3.45.11-.77.43-1.15.96-1.15.5,0,.76.36.78,1.07.07,1.79.63,2.68,1.69,2.68.64,0,1.07-.45,1.28-1.34.14-.64.16-1.33.05-2.06-.02-.09-.03-.22-.03-.4,0-.8.29-1.21.86-1.21s.91.41,1.07,1.23ZM765.47,378.04c-.2.05-.33.08-.4.08-.79,0-1.18-.42-1.18-1.26,0-.62.38-1.06,1.12-1.31l9.93-3.16c.21-.07.39-.11.54-.11.91,0,1.37.44,1.37,1.31,0,.59-.37,1.01-1.1,1.26l-10.28,3.19Z"/>
      <path fill="#f9f7eb" d="M777.33,434.37h-.91c-1.16,0-2.29-.29-3.4-.86-1.21-.62-2.01-1.45-2.38-2.46-1.14,2.21-3.4,3.32-6.77,3.32h-2.86v-6.24h2.84c1.77,0,2.92-.51,3.45-1.53.38-.7.54-2.03.48-3.99l-.43-17.75c-.02-.88.21-1.62.7-2.25.52-.68,1.21-1.02,2.09-1.02s1.5.32,1.98.96c.45.55.67,1.28.67,2.17v16.78c0,4.41,1.35,6.61,4.04,6.61h.51v6.24Z"/>
      <path fill="#f9f7eb" d="M787.23,423.07c0,3.5-.36,6.02-1.07,7.58-1.12,2.48-3.3,3.72-6.53,3.72h-4.18v-6.24h2.84c1.7,0,2.8-.34,3.32-1.02.45-.57.65-1.73.62-3.48l-.43-18.66c-.02-.89.21-1.67.67-2.33.5-.71,1.21-1.07,2.12-1.07,1.77,0,2.65,1.09,2.65,3.27v18.23Z"/>
      <path fill="#f9f7eb" d="M797.33,432.39c0,1.95-.77,2.92-2.3,2.92-1.45,0-2.2-.91-2.28-2.73l-1.04-26.61c0-.64.07-1.24.2-1.79.13-.55.33-1.03.58-1.42.25-.39.55-.7.91-.92.36-.22.77-.33,1.23-.33,1.8,0,2.7,1.36,2.7,4.07v26.82Z"/>
      <path fill="#f9f7eb" d="M838.74,434.37h-1.02c-1.93,0-3.43-.62-4.5-1.87-1.27,3.37-3.21,6.2-5.84,8.49-2.23,1.91-5.21,3.65-8.94,5.22-.52.23-1.04.35-1.55.35-.7,0-1.29-.22-1.78-.66-.49-.44-.74-1-.74-1.7,0-1.27.75-2.25,2.25-2.94,3.19-1.5,5.61-2.88,7.25-4.15,2.55-1.96,4.12-4.19,4.71-6.67.07-.23.11-.58.11-1.04,0-1.37-.29-2.9-.86-4.58-.11-.29-.16-.6-.16-.94,0-.75.25-1.38.75-1.9.5-.52,1.12-.8,1.87-.86h.19c1,0,1.83.65,2.49,1.95.18.36.39.81.63,1.35.24.54.53,1.17.87,1.89.89,1.21,2.3,1.82,4.23,1.82h.03v6.24Z"/>
      <path fill="#f9f7eb" d="M853.41,434.37h-16.54v-6.24h16.54v6.24Z"/>
      <path fill="#f9f7eb" d="M868.08,434.37h-16.54v-6.24h16.54v6.24Z"/>
      <path fill="#f9f7eb" d="M882.75,434.37h-16.54v-6.24h16.54v6.24Z"/>
      <path fill="#f9f7eb" d="M897.42,434.37h-16.54v-6.24h16.54v6.24Z"/>
      <path fill="#f9f7eb" d="M912.09,434.37h-16.54v-6.24h16.54v6.24Z"/>
      <path fill="#f9f7eb" d="M929.38,395.62c.12.57.19,1.16.19,1.77,0,1.38-.29,2.53-.86,3.48-.68,1.12-1.67,1.69-2.97,1.69s-2.09-.61-2.52-1.82c-.68,1.87-1.92,2.81-3.72,2.81s-2.57-1.12-2.57-3.37c0-.95.21-1.87.62-2.78.23-.48.54-.72.94-.72.55,0,.79.41.72,1.23-.18,1.57.18,2.36,1.07,2.36,1.3,0,2.12-1.15,2.44-3.45.11-.77.43-1.15.96-1.15.5,0,.76.36.78,1.07.07,1.79.63,2.68,1.69,2.68.64,0,1.07-.45,1.28-1.34.14-.64.16-1.33.05-2.06-.02-.09-.03-.22-.03-.4,0-.8.29-1.21.86-1.21s.91.41,1.07,1.23ZM919.05,393.67c-.2.05-.33.08-.4.08-.79,0-1.18-.42-1.18-1.26,0-.62.38-1.06,1.12-1.31l9.93-3.16c.21-.07.39-.11.54-.11.91,0,1.37.44,1.37,1.31,0,.59-.37,1.01-1.1,1.26l-10.28,3.19Z"/>
      <path fill="#f9f7eb" d="M935.27,434.37h-.96c-2.43,0-4.22-.57-5.38-1.71-.79,2.5-2.62,3.75-5.51,3.75-2.61,0-4.67-1.32-6.18-3.96-1.11,1.29-2.49,1.93-4.15,1.93h-2.86v-6.24h2.49c1.59,0,2.98-.87,4.18-2.6,1.84-2.68,3.85-4.02,6.02-4.02,1.73,0,3.26.7,4.58,2.09.29.3.67.72,1.17,1.26.49.54,1.1,1.21,1.83,2.01,1.09.84,2.65,1.26,4.68,1.26h.11v6.24ZM925.53,429.66c0-.82-.3-1.57-.91-2.25-.59-.7-1.29-1.04-2.09-1.04-1.2,0-1.79.72-1.79,2.17,0,.84.29,1.55.88,2.14.61.59,1.33.88,2.17.88,1.16,0,1.74-.63,1.74-1.9Z"/>
      <path fill="#f9f7eb" d="M941.87,398.78c-.14.04-.28.05-.4.05-.79,0-1.18-.42-1.18-1.26,0-.62.37-1.06,1.1-1.31l9.93-3.16c.16-.05.35-.08.56-.08.91,0,1.37.43,1.37,1.29,0,.59-.37,1.01-1.1,1.26l-10.28,3.21Z"/>
      <path fill="#f9f7eb" d="M955.99,431.9c-4.09,1.64-9.62,2.46-16.6,2.46h-6v-6.24h6.42c-.86-1.98-1.29-3.7-1.29-5.17,0-1.84.76-3.6,2.28-5.27,1.73-1.94,3.88-2.92,6.45-2.92,1.48,0,2.96.39,4.44,1.18,1.73.93,2.6,2.08,2.6,3.45s-.57,2.06-1.71,2.06c-.38,0-1.12-.21-2.25-.62-1.12-.41-2.01-.62-2.65-.62-1.14,0-2.11.26-2.89.78-.88.61-1.31,1.46-1.31,2.57,0,1.25.49,2.25,1.47,3,.88.7,1.96,1.04,3.27,1.04.71,0,1.58-.08,2.6-.24,1.02-.16,2.2-.39,3.56-.7.45-.11.87-.16,1.29-.16,1.73,0,2.6.76,2.6,2.28s-.76,2.5-2.28,3.11Z"/>
    </g>
    <g>
      <path fill="#fdbbb4" d="M958.27,271.72c.07-11.62.35-19.26-.73-25.07-3.38-18.16-4.42-20.17-4.01-57.62.29-26.37,7.2-19.17,3.71-42.35-1.73-11.46,5.11-33.55-8.81-39.69-1.51-.67-3.17-1.05-4.92-1.09-6.65-.15-13.6-.05-20.3.7-6.7.75-13.13,2.15-18.74,4.6-5.61,2.45-10.38,5.96-13.76,10.92-3.38,4.96-5.36,11.38-5.38,19.66-.02,8.78-1.96,17.55-2.07,26.33-.12,9.4,2.19,18.03,2.95,27.34,1.79,21.94-.88,42.54-.88,64.48,0,5.82,1.37,8.83,1.99,15.06.97,9.63-1.99,19.09-1.99,28.73,0,1.67,0,3.42,0,5.19s0,3.56,0,5.31c0,1.78.36,3.47,1.01,5.01.65,1.54,1.59,2.93,2.76,4.09,1.16,1.16,2.55,2.11,4.09,2.76,1.54.65,3.23,1.01,5.01,1.01h4.83c9.09,1.7,17.37,1.3,24.56-.82,7.2-2.11,13.31-5.94,18.09-11.08,4.77-5.14,8.2-11.6,10.03-18.98,1.71-6.89,2.52-15.57,2.58-24.51Z"/>
      <path fill="#fdbbb4" d="M841.5,210s-.21-11.07.05-17.19c0,0,0-.06,0-.13,0-.05,0-.12,0-.19,0-.07,0-.15,0-.24,0-.09,0-.19-.01-.29,0-.11-.01-.22-.02-.34,0-.12-.01-.25-.02-.38s-.01-.27-.02-.42c0-.15-.01-.3-.02-.45-.03-.78-.13-1.55-.29-2.29-.16-.74-.39-1.46-.67-2.15-.28-.69-.63-1.35-1.02-1.97-.4-.62-.84-1.21-1.34-1.76-.49-.55-1.04-1.05-1.62-1.51-.58-.45-1.2-.86-1.87-1.22-10.56-5.64-19.14-1.18-29.36.34-11.86,1.77-22.72,3.19-29.84,14.64-1.95,3.13-2.88,6.01-3.54,8.22-3.04,10.16,2.54,15.21,2.08,23.71-.53,10.06-8.39,23.36-18.29,28.15-6.89,3.33-16.21,2.65-19.78,2.39,0,0-8.08-.59-13.09-.59-.94,0-1.88,0-2.82,0-.94,0-1.88,0-2.83,0-.95,0-1.89,0-2.84,0-.95,0-1.9,0-2.85,0s-1.91,0-2.86,0c-.96,0-1.92,0-2.88,0-.96,0-1.92,0-2.88,0s-1.93,0-2.89,0h0c-9.72,0-17.93,0-24.18-.03-4.69-.01-9.05-.03-14.99-.07-9.6-.06-16.71-.15-18.34-.17-5.12-.06-10.89-.14-18.3-.29-11.18-.23-18.53,2.36-28.41,1.8-15.11-.86-16.45-2.91-30.96-2.22-6.17.29-13.43.56-27.96.88-10.02.22-17.33.28-25.57.35-11.36.09-23.32.18-38.93-.03-5.02-.07-10.44-.18-21.27-.42-19.01-.41-20.86-.54-32.88-.78-15.45-.31-27.4-.41-36.61-.48-12.01-.1-21.69-.12-30.55-.1-6.28.02-11.06.04-14.83.06-12.31.07-21.66.18-31.62.29-8.27.1-14.65,2.76-19.81,2.83-9.44.13-16.57-2.34-20.16-2.28-8.85.14-31.87.5-42.99.68-2.95,0-5.91,0-8.88,0s-5.93,0-8.91,0c-.19,0-26.59,0-26.77,0-11.72,0-17.59,0-17.59,0-1,.22-3.55,0-8.65,0-2.69,0-2.63-6.83-1.66-9.91,5.81-18.49.81-36.84,1.66-48.82.03-.46,0-3.09,0-8.36,0-.87-.09-1.71-.25-2.53-.16-.82-.4-1.61-.71-2.37-.31-.76-.69-1.48-1.13-2.15-.44-.68-.95-1.31-1.51-1.89-.56-.58-1.17-1.11-1.83-1.58-.66-.47-1.36-.87-2.11-1.21-.74-.34-1.52-.6-2.34-.79-.81-.19-1.65-.3-2.52-.33-4.02-.12-8.05-.09-12,.13-3.95.22-7.83.63-11.56,1.28-3.73.65-7.31,1.53-10.67,2.7-3.36,1.17-6.49,2.63-9.33,4.41-2.84,1.79-5.37,3.9-7.53,6.4-2.16,2.49-3.95,5.37-5.28,8.66-2.07,5.1-2.51,10.33-2.58,11.2-1,13.03-2.26,21.47-2.82,35.8-.28,7.13,2.72,14.21,2.74,19.23.03,6.92,0,0,.43,11,.39,10.08-.65,10.63-.07,21.98.61,11.83.95,22.58.55,34.3-.1,2.98-.33,5.91-.78,8.7-.45,2.79-1.11,5.43-2.08,7.83-.97,2.4-2.24,4.56-3.9,6.38-1.66,1.82-3.72,3.31-6.25,4.36-2.53,1.05-5.53,1.66-9.1,1.75-13.97.35-16.35,4.63-30.16,3.83-2.53-.15-5.07-2.69-7.59-2.95-2.61-.27-9.37-1.13-12.32.08-.75.31-1.47.69-2.15,1.13-.68.44-1.31.94-1.89,1.49-.58.55-1.11,1.16-1.58,1.82s-.87,1.36-1.21,2.09c-.34.74-.61,1.52-.8,2.32-.19.81-.31,1.65-.33,2.51-.16,4.85-.14,9.49.11,13.9.25,4.41.74,8.58,1.52,12.47.77,3.89,4.41,7.51,5.81,10.81,1.4,3.3.57,6.29,2.7,8.93,2.13,2.64,4.66,4.92,7.63,6.82,2.97,1.9,6.39,3.4,10.31,4.48,5.72,1.58,10.44-.75,13.3-.66,11.55.36,22.51,3.27,36.92-.27,4.35-1.07,10.79-.1,18.68-3.87,5.91-2.82,11.47-8.86,16.62-12.87,5.15-4,9.88-8.55,14.13-13.52,4.25-4.98,8-10.39,11.2-16.13,3.2-5.74,5.84-11.81,7.85-18.11,2.01-6.3,3.38-12.82,4.06-19.47.67-6.65.64-13.42-.17-20.21,1.72,0,3.51,0,5.36,0,.73,0,4.97,0,5.72,0,9.53,0,24.85,0,29.76,0,.1,0,2.35,0,5.36,0,3.08,0,4.87,0,6.39-.01,1.48,0,2.59-.01,3.13-.02,1.04,0,2.07-.01,3.09-.02,1.02,0,2.04-.02,3.05-.03,1.01-.01,2.01-.02,3.01-.04,1-.01,1.99-.03,2.97-.04.98-.02,1.96-.03,2.94-.05,12.33.01,29.21.03,40.52.05,3.32,0,16.71,2.6,19.97,2.61,3.24,0,21.16-2.53,26.63-2.52,1.53,0,21.31.05,23.3.06,11.35.03,27.06.07,29.15.07,7.03.01,15.39.03,19.96.03,10.29.01,15.44.02,19.97.02,6.37,0,18.46-2.59,34.12-2.74,7.87-.08,18.3,2.39,31.93,2.11,5.3-.11,10.99-.24,15.55-.35,15.46-.36,17.53-.46,23.85-.52,4.39-.05,10.55-.11,18.57.03,6.62.11,10.13.28,16.93.53,11.74.42,20.45,3.17,30.48,3.38,12.38.25,22.53-2.21,29.17-2.16,1.87.01,8.45.06,17.15.07,10.5,0,18.43-.05,27.74-.11,7.62-.05,13.82-.12,18.3-.16,5.08-.05,8.86-.09,14.98-.16,6.23-.07,13.43-.15,20.07-.23h0c3.67-.07,7.24-.15,10.73-.26,0,0,5.48-2.75,10.2-2.96,8.69-.4,20.91,1.62,35.83-.61,5.07-.76,9.36-1.48,15.17-2.82,4.77-1.1,9.26.21,13.5-1.25,5.15-1.77,9.75-3.77,14.51-6.71,7.95-4.91,15.82-12.44,21.63-19.75,1.11-1.4,2.37-3.06,3.71-4.96,6.09-8.66,12.57-21.92,14.96-32.19.77-3.31,1.33-6.75,1.6-10.27.2-2.61.24-4.59.25-5.65.08-9.14-.38-18.66-.58-29.48Z"/>
      <path fill="#fdbbb4" d="M664.53,160.78c3.81-.06,6.69-1.31,11.43-1.29,3.74.01,7.42.08,11.04.17,3.62.09,7.18.2,10.66.31,5.72.18,8.57.25,10.21.28,7.45.14,12.47.22,18.81-.2,3.69-.24,5.69-.42,8.48-.81,13.52-1.88,26.49-6.26,33.04-17.89,1.26-2.24-.22-4.74.68-7.52,1.2-3.67,1.71-6.49,2.16-9.23,0,0,1.64-9.94.77-24.24-.02-.36-.06-.71-.06-.71-.02-.17-.04-.35-.07-.52-.06-.4-.15-.8-.25-1.19-.1-.39-.22-.77-.36-1.14-.14-.37-.29-.74-.46-1.09-.17-.36-.35-.7-.56-1.04-.2-.34-.42-.66-.65-.98-.23-.32-.47-.62-.73-.91-.26-.29-.53-.57-.81-.84-.28-.27-.58-.52-.88-.77-.31-.24-.62-.47-.95-.68-.33-.21-.67-.41-1.01-.6s-.7-.35-1.07-.51c-.37-.15-.74-.29-1.12-.41-.38-.12-.77-.22-1.16-.31s-.8-.15-1.2-.2c0,0-.61-.07-1.23-.09-15.1-.41-25.61,1.25-25.61,1.25-2.29.36-3.97.73-4.9.94-1.6.37-3.17.79-4.7,1.27-1.53.48-3.01,1.02-4.46,1.64-8.48,3.72-15.53,10.57-18.11,19.57-.47,1.65-.84,3.4-1.08,5.27-.25,1.87-.38,3.84-.38,5.94,0-2.08-.14-4.05-.38-5.9-.25-1.85-.61-3.6-1.07-5.24,0,0-.7-2.41-1.71-4.61-2.09-4.53-9.02-11.59-20.06-16.06-4.45-1.8-8.03-2.55-10.22-3.01,0,0-7.35-1.51-25.23-1.07-.63.02-1.21.09-1.28.09-.42.05-.83.12-1.24.21-.41.09-.8.2-1.2.33-.39.13-.77.27-1.15.44-.37.16-.74.34-1.09.54-.35.2-.7.41-1.03.63-.33.23-.65.47-.96.72-.31.26-.61.53-.89.81-.28.28-.55.58-.81.89s-.5.63-.72.96c-.23.33-.44.68-.63,1.03s-.38.72-.54,1.09c-.16.37-.31.76-.44,1.15-.13.39-.24.79-.33,1.2-.09.41-.16.82-.21,1.24-.08.68-.09,1.19-.09,1.28-.04,1.51.91,10.55.69,14.66-.14,2.61-.85,8.49,2.88,20.26.24.77.75,2.37,1.64,4.39,1.92,4.4,3.99,7.12,4.51,7.8,1.37,1.77,2.57,2.93,2.95,3.29,1.07,1.02,2.22,1.96,3.46,2.82,4.24,2.91,10.88,5.3,15.92,6.26,1.39.26,2.62.36,3.77.34Z"/>
      <path fill="#fdbbb4" d="M691.26,88.06c.31.28.62.55.95.8s.66.48,1.01.69.7.41,1.06.59.72.34,1.1.48.75.27,1.13.37.76.2,1.15.27.78.12,1.17.16.78.05,1.17.05.78-.02,1.17-.05.78-.09,1.17-.16.77-.16,1.15-.27.76-.23,1.13-.37.74-.3,1.1-.48.71-.37,1.06-.59.68-.44,1.01-.69.63-.51.94-.79c11.76-10.85,23.26-22.02,25.82-37.44.27-1.64.41-3.28.41-4.91,0-1.63-.14-3.27-.41-4.91s-.68-3.29-1.23-4.95c-.55-1.66-1.23-5.9-2.05-7.59-.82-1.69-1.78-.82-2.87-2.55-1.09-1.73-2.32-3.49-3.69-5.27-1.37-1.79-2.87-6.17-4.51-8.03-1.64-1.85-3.41-1.16-5.32-3.09-1.91-1.93-3.96-3.9-6.14-5.92-.31-.28-.62-.55-.95-.8s-.66-.48-1.01-.69-.7-.41-1.06-.59-.72-.34-1.1-.48-.75-.27-1.13-.37-.76-.2-1.15-.27-.78-.12-1.17-.16-.78-.05-1.18-.05-.78.02-1.17.05-.78.09-1.17.16-.77.16-1.15.27-.76.23-1.13.37-.74.3-1.1.48-.71.37-1.06.59-.68.44-1.01.69-.64.51-.97.82c-9.18,8.55-17.11,16.29-22.51,27.44-.82,1.69-1.5,3.36-2.05,5.02-.55,1.66-.95,3.31-1.23,4.95-.27,1.64-.41,3.28-.41,4.91,0,1.63.14,3.27.41,4.91.27,1.64.68,3.29,1.23,4.94,2.82,8.55,7.87,9.8,13.11,15.72,1.64,1.85,3.41,8.89,5.32,10.82,1.91,1.93,3.96,3.9,6.14,5.92Z"/>
      <path fill="#fdbbb4" d="M897.18,81.9c2.24.08,4.45.12,6.63.11,6.75-.03,17.85-1.1,24.2-2.84,1.81-.5,3.57-1.07,5.25-1.71s3.3-1.38,4.84-2.19c1.54-.81,3-1.71,4.38-2.69,5.71-4.08,9.83-9.59,12.18-16.69.61-1.82,1.1-3.76,1.47-5.82.37-2.06.63-4.24.76-6.55.27-4.84-.81-10.56-.8-15.57,0-.03,0-.07,0-.11s0-.1,0-.16v-.2c0-.07,0-.15,0-.24v-.27c0-.1,0-.2,0-.31v-.34c0-.12,0-.24,0-.37v-.82c0-.14,0-.29,0-.45v-.47c0-.16,0-.32,0-.49v-.5c0-.44-.02-.88-.07-1.32-.04-.43-.11-.86-.19-1.28-.09-.42-.19-.83-.32-1.23-.13-.4-.27-.8-.43-1.18-.16-.39-.34-.76-.54-1.13s-.41-.72-.64-1.06c-.23-.34-.48-.67-.74-.99-.26-.32-.54-.62-.83-.91-.29-.29-.6-.57-.91-.83s-.65-.51-.99-.74c-.34-.23-.7-.45-1.06-.65s-.74-.38-1.12-.54c-.38-.16-.78-.31-1.18-.43s-.81-.23-1.23-.32c-.42-.09-.85-.15-1.28-.2-.43-.04-.87-.07-1.32-.07-.51,0-1.02,0-1.53,0s-1.03,0-1.54,0c-.52,0-1.03,0-1.55,0-.52,0-1.03,0-1.55,0-.52,0-1.03,0-1.54,0-.51,0-1.02,0-1.53,0-.51,0-1.01,0-1.51,0s-1,0-1.49,0c-.49,0-.98,0-1.46,0-.48,0-.95,0-1.42,0-.47,0-.93,0-1.38,0-.45,0-.9,0-1.33,0-.43,0-.86,0-1.27,0-.41,0-.82,0-1.21,0s-.77,0-1.14,0-.73,0-1.07,0c-2.09,0-4.06.14-5.92.38-2.78.37-4.85.96-5.25,1.08,0,0-7.13,1.32-11.21,4.02-11.15,7.39-11.57,24.02-12.21,27.96-.27,1.64,2.09,3.31,1.91,4.99-.88,8.23-5.2,16.02-2.57,24.19.12.39.27.77.43,1.14.16.37.33.73.52,1.08.19.35.4.69.62,1.02.22.33.46.65.71.96s.51.6.79.89.57.55.87.81c.3.26.62.5.94.73s.66.44,1.01.64c.35.2.7.38,1.07.55.37.17.74.31,1.12.44.38.13.77.24,1.17.34.4.09.8.17,1.22.23s.83.09,1.26.11Z"/>
    </g>
  </g>
  <g>
    <path fill="#f9f7eb" d="M179.19,103.29c.27.29.6.52.99.69.38.17.8.25,1.24.25s.85-.08,1.24-.25c.38-.16.72-.39,1-.69s.51-.63.67-1.02c.16-.38.25-.8.25-1.24s-.08-.85-.25-1.24c-.17-.38-.39-.72-.67-.99-.28-.28-.62-.5-1-.66s-.8-.25-1.24-.25c-.86,0-1.6.31-2.22.94-.61.6-.91,1.34-.91,2.2,0,.44.08.85.25,1.24.17.38.38.72.66,1.02Z"/>
    <path fill="#f9f7eb" d="M186.85,103.29c.27.29.61.52.99.69.38.17.8.25,1.23.25s.85-.08,1.24-.25c.38-.16.71-.39.99-.69.27-.29.5-.63.66-1.02.17-.38.25-.8.25-1.24s-.08-.85-.25-1.24c-.16-.38-.38-.72-.66-.99-.28-.28-.61-.5-.99-.66s-.8-.25-1.24-.25-.85.08-1.23.25-.72.38-.99.66c-.27.27-.5.6-.66.99-.17.38-.25.8-.25,1.24s.08.85.25,1.24c.16.38.38.72.66,1.02Z"/>
    <path fill="#f9f7eb" d="M210.62,140.22c-.27-.28-.61-.5-.99-.66s-.8-.25-1.24-.25-.85.08-1.23.25-.72.38-.99.66c-.27.27-.5.6-.66.99-.17.38-.25.8-.25,1.24s.08.85.25,1.24c.16.38.38.72.66,1.02s.61.52.99.69c.38.17.8.25,1.23.25s.85-.08,1.24-.25c.38-.16.72-.39.99-.69s.5-.63.66-1.02c.17-.38.25-.8.25-1.24s-.08-.85-.25-1.24c-.16-.38-.38-.72-.66-.99Z"/>
    <path fill="#f9f7eb" d="M202.97,140.22c-.28-.28-.62-.5-1-.66s-.8-.25-1.24-.25c-.86,0-1.6.3-2.22.91-.61.64-.91,1.38-.91,2.22,0,.44.08.85.25,1.24.17.38.38.72.66,1.02.27.29.6.52.99.69.38.17.8.25,1.24.25s.85-.08,1.24-.25c.38-.16.72-.39,1-.69s.51-.63.67-1.02c.16-.38.25-.8.25-1.24s-.08-.85-.25-1.24c-.17-.38-.39-.72-.67-.99Z"/>
    <path fill="#f9f7eb" d="M216.63,111.33c.28.28.62.51,1,.67s.8.25,1.24.25.85-.08,1.24-.25.71-.39.99-.67.5-.62.66-1c.16-.38.25-.8.25-1.24s-.08-.85-.25-1.24c-.17-.38-.39-.72-.66-.99-.27-.28-.6-.5-.99-.66s-.8-.25-1.24-.25-.85.08-1.24.25-.72.38-1,.66c-.28.27-.51.6-.67.99-.16.38-.25.8-.25,1.24s.08.85.25,1.24c.17.38.39.72.67,1Z"/>
    <path fill="#f9f7eb" d="M220.1,117.03c-.77,0-1.39.27-1.87.8-.48.53-.71,1.18-.71,1.95,0,.28.03.61.1,1.02.06.4.16.87.29,1.4.28,1.04.41,1.83.41,2.36,0,1.91-1.37,2.86-4.09,2.86h-2.78c-2.6,0-4.05-1.22-4.34-3.66-.22-1.74-.97-2.61-2.25-2.61s-2.06.87-2.34,2.61c-.4,2.44-1.93,3.66-4.59,3.66h-2.17c-1.65,0-2.73-.99-3.24-2.97-.29-1.04-.44-2.7-.44-4.97,0-.44.02-.99.07-1.65.05-.66.12-1.43.21-2.31.09-.9.17-1.68.22-2.34.05-.66.08-1.21.08-1.65,0-2.14-.75-3.22-2.25-3.22-.73,0-1.37.4-1.9,1.21-.42.64-.82,1.2-1.2,1.66-.37.47-.73.84-1.06,1.11-1.45.94-2.67,1.72-3.66,2.36-.99.64-1.77,1.15-2.34,1.51-2.53,1.74-3.79,3.94-3.79,6.59,0,1.56.87,2.79,2.61,3.71,1.39.73,2.96,1.1,4.7,1.1,1.45,0,2.68-.28,3.71-.82.35,4.45,2.81,6.76,7.34,7.01v.05h3.05c3.13,0,5.38-1.12,6.76-3.35.83,2.04,2.85,3.1,5.94,3.28v.07h3.3c3.06,0,5.45-.89,7.17-2.66,1.72-1.78,2.58-4.2,2.58-7.28,0-4.56-1.17-6.84-3.52-6.84ZM187.16,121.75c-.64.35-1.67.52-3.08.52-1.48,0-2.22-.31-2.22-.94s.62-1.31,1.87-2c1.85-1.03,3.04-1.77,3.57-2.23-.11,1.3-.17,2.44-.17,3.41v.63c0,.2.01.4.03.6Z"/>
    <path fill="#f9f7eb" d="M278.67,111.33c.28.28.62.51,1,.67s.8.25,1.24.25.85-.08,1.24-.25.71-.39.99-.67.5-.62.66-1c.16-.38.25-.8.25-1.24s-.08-.85-.25-1.24c-.17-.38-.39-.72-.66-.99-.27-.28-.6-.5-.99-.66s-.8-.25-1.24-.25-.85.08-1.24.25-.72.38-1,.66c-.28.27-.51.6-.67.99-.16.38-.25.8-.25,1.24s.08.85.25,1.24c.17.38.39.72.67,1Z"/>
    <path fill="#f9f7eb" d="M282.15,117.03c-.77,0-1.39.27-1.87.8-.48.53-.71,1.18-.71,1.95,0,.28.03.61.1,1.02.06.4.16.87.29,1.4.28,1.04.41,1.83.41,2.36,0,1.91-1.37,2.86-4.09,2.86h-1.98c-2.14,0-3.41-1.12-3.79-3.35-.31-1.74-1.09-2.61-2.34-2.61s-2,.87-2.25,2.61c-.31,2.23-1.49,3.35-3.52,3.35-1.87,0-2.95-1.14-3.24-3.41-.26-1.7-1.02-2.56-2.28-2.56-1.36,0-2.18.91-2.47,2.72-.35,2.16-1.53,3.24-3.54,3.24s-3.21-1.12-3.52-3.35c-.26-1.74-1.02-2.61-2.28-2.61s-2.05.87-2.36,2.61c-.38,2.23-1.69,3.35-3.93,3.35h-.66c-2.88,0-4.31-1.77-4.31-5.3v-18.47c0-2.45-.93-3.68-2.8-3.68-.94,0-1.63.35-2.09,1.04-.46.7-.69,1.57-.69,2.64l.63,17.45c.09,2.62.3,4.76.63,6.42.33,1.66.83,2.95,1.51,3.89.68.94,1.54,1.57,2.59,1.91.84.27,1.88.4,3.04.46v.05h2.72c2.56,0,4.41-1.02,5.55-3.05,1.06,2.03,3.22,3.05,6.46,3.05,2.56,0,4.34-1.1,5.33-3.3,1.06,2.2,2.99,3.3,5.8,3.3s4.66-1.02,5.69-3.05c.9,1.73,2.41,2.68,4.45,2.93v.11h3.3c3.06,0,5.45-.89,7.17-2.66,1.72-1.78,2.58-4.2,2.58-7.28,0-4.56-1.17-6.84-3.52-6.84Z"/>
    <path fill="#f9f7eb" d="M310.83,103.89c-.13-2.49-1.11-3.74-2.94-3.74-1.01,0-1.77.48-2.28,1.43-.44.79-.62,1.71-.52,2.78l.94,11.02c.07.77.12,1.47.15,2.09.03.62.04,1.17.04,1.65,0,3.08-.52,5.33-1.57,6.76-.92,1.25-2.5,2.18-4.75,2.8-1.72.24-3.04.42-3.97.55-.93.13-1.46.21-1.61.25-2.64.53-3.96,1.46-3.96,2.78,0,1.92,1.61,2.88,4.84,2.88,10.95,0,16.43-5.58,16.43-16.73,0-.51-.03-1.25-.08-2.22l-.72-12.28Z"/>
    <path fill="#f9f7eb" d="M296.05,121.59c0,.24-.02.54-.04.89-.03.36-.06.77-.1,1.25-.04.48-.06.89-.08,1.24-.02.35-.03.64-.03.88,0,1.41.71,2.12,2.12,2.12,1.5,0,2.39-.77,2.66-2.31.33-1.81.5-3.72.5-5.72,0-3.39-.49-7.01-1.46-10.85-1.38-5.37-3.25-8.05-5.63-8.05-.82,0-1.48.29-1.98.87s-.74,1.28-.74,2.1c0,.73.19,1.43.58,2.09,2.8,4.82,4.2,9.98,4.2,15.5Z"/>
    <path fill="#f9f7eb" d="M301.38,143.6c-.2,0-.49.05-.85.14-1.98.57-3.07.85-3.27.85-2.09,0-3.13-.67-3.13-2.01,0-1.19.7-1.79,2.09-1.79.29,0,.73.05,1.32.16.61.11,1.05.16,1.35.16.62,0,.93-.33.93-.99s-.43-1.17-1.29-1.59c-.7-.33-1.41-.49-2.14-.49-1.43,0-2.65.47-3.66,1.4-.99.93-1.48,2.11-1.48,3.52,0,1.23.5,2.29,1.48,3.19l-1.57.63c-.9.35-1.34.88-1.34,1.59s.41,1.04,1.24,1.04c.2,0,.47-.05.8-.14l9.29-2.94c1.14-.37,1.7-.92,1.7-1.65s-.49-1.1-1.46-1.1Z"/>
    <path fill="#f9f7eb" d="M319.16,100.07c-.48,0-.9.11-1.26.34-.37.23-.68.54-.93.95-.26.4-.46.89-.59,1.46-.14.57-.21,1.18-.21,1.84l1.07,27.31c.07,1.87.85,2.8,2.34,2.8,1.58,0,2.36-1,2.36-3v-27.53c0-2.78-.93-4.18-2.78-4.18Z"/>
    <path fill="#f9f7eb" d="M372.05,117.03c-.77,0-1.39.27-1.87.8-.48.53-.71,1.18-.71,1.95,0,.28.03.61.1,1.02.06.4.16.87.29,1.4.28,1.04.41,1.83.41,2.36,0,1.91-1.37,2.86-4.09,2.86h-1.76c-1.98,0-3.43-.62-4.34-1.87-.35-.73-.65-1.38-.89-1.94-.25-.56-.46-1.02-.65-1.39-.68-1.34-1.53-2.01-2.55-2.01h-.19c-.77.06-1.41.35-1.92.88s-.77,1.18-.77,1.95c0,.35.06.67.16.96.59,1.72.88,3.29.88,4.7,0,.48-.04.83-.11,1.07-.61,2.55-2.22,4.83-4.84,6.84-1.69,1.3-4.17,2.72-7.45,4.26-1.54.72-2.31,1.72-2.31,3.02,0,.71.25,1.3.75,1.74s1.11.67,1.83.67c.53,0,1.06-.12,1.59-.36,3.83-1.61,6.89-3.4,9.18-5.36,2.69-2.35,4.69-5.25,5.99-8.71.93,1.08,2.19,1.68,3.74,1.85v.08h3.3c3.06,0,5.45-.89,7.17-2.66,1.72-1.78,2.58-4.2,2.58-7.28,0-4.56-1.17-6.84-3.52-6.84Z"/>
    <path fill="#f9f7eb" d="M377.82,108.3c-.27-.28-.6-.51-.99-.67s-.8-.25-1.24-.25-.85.08-1.24.25-.72.39-1,.67-.51.62-.67,1c-.16.39-.25.8-.25,1.24s.08.85.25,1.24c.17.38.39.71.67.99s.62.49,1,.66c.38.16.8.25,1.24.25s.85-.08,1.24-.25c.38-.17.71-.38.99-.66s.5-.6.66-.99c.17-.38.25-.8.25-1.24s-.08-.85-.25-1.24c-.16-.38-.38-.72-.66-1Z"/>
    <path fill="#f9f7eb" d="M371.75,107c.44,0,.85-.08,1.24-.25.38-.16.72-.38,1-.66.28-.28.51-.6.67-.99s.25-.8.25-1.24-.08-.85-.25-1.24-.39-.72-.67-1.02c-.28-.29-.62-.52-1-.69s-.8-.25-1.24-.25-.85.08-1.23.25-.72.39-.99.69c-.27.29-.5.63-.66,1.02-.17.38-.25.8-.25,1.24,0,.86.3,1.6.91,2.23.62.6,1.37.91,2.22.91Z"/>
    <path fill="#f9f7eb" d="M365.69,112.77c.28.28.62.49,1,.66.38.16.8.25,1.24.25s.85-.08,1.24-.25c.38-.17.71-.38.99-.66.27-.28.49-.6.66-.99.16-.38.25-.8.25-1.24s-.08-.85-.25-1.24c-.17-.38-.38-.72-.66-1-.28-.28-.61-.51-.99-.67s-.8-.25-1.24-.25-.85.08-1.24.25-.72.39-1,.67-.51.62-.67,1c-.17.39-.25.8-.25,1.24s.08.85.25,1.24c.16.38.39.71.67.99Z"/>
    <path fill="#f9f7eb" d="M389.64,100.07c-1.04,0-1.84.53-2.39,1.59-.44.84-.64,1.84-.6,3l1.07,27.31c.07,1.87.85,2.8,2.34,2.8,1.58,0,2.36-1,2.36-3v-27.53c0-2.78-.93-4.18-2.78-4.18Z"/>
    <path fill="#f9f7eb" d="M394.09,93.07c-.35,0-.63.04-.85.11-2.09.59-3.18.88-3.27.88-2.11,0-3.16-.67-3.16-2.01,0-1.19.7-1.79,2.09-1.79.29,0,.73.06,1.32.16.6.11,1.05.16,1.34.16.64,0,.96-.34.96-1.02s-.43-1.21-1.29-1.59c-.71-.31-1.44-.47-2.17-.47-1.41,0-2.63.46-3.66,1.37-.99.92-1.48,2.09-1.48,3.52,0,1.25.5,2.32,1.48,3.22l-1.57.63c-.88.37-1.32.9-1.32,1.59s.41,1.04,1.24,1.04c.18,0,.44-.05.77-.14l9.29-2.97c1.13-.37,1.7-.91,1.7-1.62s-.48-1.1-1.43-1.1Z"/>
    <path fill="#f9f7eb" d="M416.1,103.29c.27.29.6.52.99.69.38.17.8.25,1.24.25s.85-.08,1.24-.25c.38-.16.72-.39,1-.69s.51-.63.67-1.02c.16-.38.25-.8.25-1.24s-.08-.85-.25-1.24c-.17-.38-.39-.72-.67-.99-.28-.28-.62-.5-1-.66s-.8-.25-1.24-.25c-.86,0-1.6.31-2.22.94-.61.6-.91,1.34-.91,2.2,0,.44.08.85.25,1.24.17.38.38.72.66,1.02Z"/>
    <path fill="#f9f7eb" d="M423.76,103.29c.27.29.61.52.99.69.38.17.8.25,1.23.25s.85-.08,1.24-.25c.38-.16.71-.39.99-.69.27-.29.5-.63.66-1.02.17-.38.25-.8.25-1.24s-.08-.85-.25-1.24c-.16-.38-.38-.72-.66-.99-.28-.28-.61-.5-.99-.66s-.8-.25-1.24-.25-.85.08-1.23.25-.72.38-.99.66c-.27.27-.5.6-.66.99-.17.38-.25.8-.25,1.24s.08.85.25,1.24c.16.38.38.72.66,1.02Z"/>
    <path fill="#f9f7eb" d="M497.07,118.98c-.31,0-.6.07-.86.21-.27.14-.5.32-.7.54-.2.22-.36.48-.48.77s-.18.59-.18.91c0,.42.11,1.03.33,1.81.24.77.36,1.37.36,1.79,0,1.61-.69,2.42-2.06,2.42-2.07,0-3.37-1.23-3.9-3.68-.36-1.59-1.14-2.39-2.34-2.39-1.1,0-1.79.52-2.09,1.57-.15.64-.28,1.21-.4,1.7-.12.49-.22.91-.29,1.24-.42,1.04-1.25,1.57-2.5,1.57-2.14,0-3.37-1.12-3.68-3.35-.26-1.74-1.02-2.61-2.28-2.61s-2.05.87-2.36,2.61c-.38,2.23-1.64,3.35-3.77,3.35h-.47c-2.14,0-3.41-1.12-3.79-3.35-.31-1.74-1.09-2.61-2.34-2.61s-2,.87-2.25,2.61c-.31,2.23-1.49,3.35-3.52,3.35-1.87,0-2.95-1.14-3.24-3.41-.26-1.7-1.02-2.56-2.28-2.56-1.36,0-2.18.91-2.47,2.72-.35,2.16-1.53,3.24-3.54,3.24s-3.21-1.12-3.52-3.35c-.26-1.74-1.02-2.61-2.28-2.61s-2.05.87-2.36,2.61c-.38,2.23-1.69,3.35-3.93,3.35h-1.21c-1.65,0-2.73-.99-3.24-2.97-.29-1.04-.44-2.7-.44-4.97,0-.44.02-.99.07-1.65.05-.66.12-1.43.21-2.31.09-.9.17-1.68.22-2.34.05-.66.08-1.21.08-1.65,0-2.14-.75-3.22-2.25-3.22-.73,0-1.37.4-1.9,1.21-.42.64-.82,1.2-1.2,1.66-.37.47-.73.84-1.06,1.11-1.45.94-2.67,1.72-3.66,2.36-.99.64-1.77,1.15-2.34,1.51-2.53,1.74-3.79,3.94-3.79,6.59,0,1.56.87,2.79,2.61,3.71,1.39.73,2.96,1.1,4.7,1.1,1.45,0,2.68-.28,3.71-.82.35,4.45,2.81,6.76,7.34,7.01v.05h2.72c2.56,0,4.41-1.02,5.55-3.05,1.06,2.03,3.22,3.05,6.46,3.05,2.56,0,4.34-1.1,5.33-3.3,1.06,2.2,2.99,3.3,5.8,3.3s4.66-1.02,5.69-3.05c.9,1.73,2.41,2.68,4.45,2.93v.11h2.72c2.56,0,4.41-1.02,5.55-3.05,1.06,2.03,3.01,3.05,5.85,3.05,1.03,0,2.07-.32,3.13-.96,1.06-.66,1.81-1.47,2.25-2.42.44,1.01,1.25,1.83,2.45,2.47,1.1.6,2.23.91,3.38.91,2.34,0,4.23-.9,5.66-2.69,1.34-1.63,2.01-3.66,2.01-6.07,0-1.48-.24-2.78-.71-3.88-.64-1.47-1.62-2.2-2.94-2.2ZM424.06,121.75c-.64.35-1.67.52-3.08.52-1.48,0-2.22-.31-2.22-.94s.62-1.31,1.87-2c1.85-1.03,3.04-1.77,3.57-2.23-.11,1.3-.17,2.44-.17,3.41v.63c0,.2.01.4.03.6Z"/>
    <path fill="#f9f7eb" d="M508.23,113.51c.2,0,.47-.05.8-.14l9.26-2.97c1.15-.35,1.73-.9,1.73-1.65s-.49-1.1-1.46-1.1c-.24,0-.52.05-.85.14-2.03.59-3.12.88-3.27.88-2.09,0-3.13-.67-3.13-2.01,0-1.21.7-1.81,2.09-1.81.35,0,.79.06,1.32.19.6.11,1.05.16,1.34.16.62,0,.94-.34.94-1.02,0-.64-.43-1.17-1.29-1.59-.7-.33-1.42-.49-2.17-.49-1.41,0-2.62.48-3.63,1.43-.99.93-1.48,2.1-1.48,3.49,0,1.23.49,2.29,1.48,3.19l-1.57.63c-.9.35-1.35.88-1.35,1.59s.41,1.07,1.24,1.07Z"/>
    <path fill="#f9f7eb" d="M543.26,121.45c-1.15-1.78-2.77-2.67-4.84-2.67-1.74,0-3.47.94-5.19,2.8-.18.2-.49.6-.92,1.18-.43.59-1,1.37-1.69,2.36-.64.92-1.24,1.52-1.79,1.81-.59.31-1.4.47-2.45.47h-3.63c-.22-2.42-1-4.49-2.34-6.21-1.52-1.98-3.42-2.97-5.69-2.97-1.87,0-3.49,1.03-4.86,3.08-1.25,1.89-1.87,3.87-1.87,5.93,0,2.66.9,4.46,2.72,5.41,1.34.7,3.49,1.04,6.46,1.04-1.59,3.39-5.27,6.37-11.02,8.93-1.39.62-2.09,1.58-2.09,2.86,0,.73.24,1.34.71,1.81.48.48,1.08.71,1.81.71.48,0,.94-.09,1.38-.28,7.8-3.04,12.63-7.68,14.48-13.93h4.62c2.03,0,3.75-.7,5.14-2.09,1.56,1.89,3.61,2.83,6.15,2.83,1.96,0,3.53-.79,4.73-2.36,1.08-1.41,1.62-3.13,1.62-5.16,0-2.2-.49-4.06-1.46-5.58ZM515.51,127.76c-.5-.03-.87-.06-1.13-.1-1.32-.24-1.98-.84-1.98-1.81,0-.53.19-.99.58-1.36.38-.37.84-.56,1.38-.56.88,0,1.6.45,2.17,1.35.51.75.8,1.59.85,2.53-.75,0-1.38-.01-1.87-.04ZM538.2,129.25c-.59,0-1.24-.18-1.98-.55-.84-.44-1.26-.93-1.26-1.46,0-.7.35-1.36,1.04-2,.71-.66,1.43-.99,2.14-.99s1.28.33,1.7.99c.37.59.55,1.25.55,2,0,1.34-.73,2.01-2.2,2.01Z"/>
  </g>
</svg>